<?xml version="1.0" encoding="UTF-8" standalone="no"?>
<!-- Created with Inkscape (http://www.inkscape.org/) -->

<svg
   xmlns:dc="http://purl.org/dc/elements/1.1/"
   xmlns:cc="http://creativecommons.org/ns#"
   xmlns:rdf="http://www.w3.org/1999/02/22-rdf-syntax-ns#"
   xmlns:svg="http://www.w3.org/2000/svg"
   xmlns="http://www.w3.org/2000/svg"
   xmlns:sodipodi="http://sodipodi.sourceforge.net/DTD/sodipodi-0.dtd"
   xmlns:inkscape="http://www.inkscape.org/namespaces/inkscape"
   width="100mm"
   height="100mm"
   viewBox="0 0 100 100"
   version="1.1"
   id="svg8"
   inkscape:version="0.92.3 (2405546, 2018-03-11)"
   sodipodi:docname="favicon.svg"
   inkscape:export-filename="/home/david/aplicaciones/lunamontilla.co.ve/images/favicon.png"
   inkscape:export-xdpi="32.509998"
   inkscape:export-ydpi="32.509998">
  <defs
     id="defs2">
    <inkscape:perspective
       sodipodi:type="inkscape:persp3d"
       inkscape:vp_x="60.986467 : 61.794394 : 1"
       inkscape:vp_y="0 : 1371.4004 : 0"
       inkscape:vp_z="144.10462 : 61.794394 : 1"
       inkscape:persp3d-origin="102.54555 : 38.937721 : 1"
       id="perspective1068" />
    <inkscape:path-effect
       fuse_tolerance="0"
       vertical_pattern="false"
       prop_units="false"
       tang_offset="0"
       normal_offset="0"
       spacing="0"
       scale_y_rel="false"
       prop_scale="0.60059323"
       copytype="single_stretched"
       pattern="m 15.073914,4.8183866 c 0,-2.76 2.24,-5.00000003 5,-5.00000003 2.76,0 5,2.24000003 5,5.00000003 0,2.76 -2.24,5 -5,5 -2.76,0 -5,-2.24 -5,-5 z"
       is_visible="true"
       id="path-effect1034"
       effect="skeletal" />
    <inkscape:path-effect
       is_visible="true"
       id="path-effect1032"
       effect="spiro" />
    <inkscape:path-effect
       effect="skeletal"
       id="path-effect1025"
       is_visible="true"
       pattern="m -5.6300162,4.8183866 c 0,-2.76 2.24,-5.00000003 4.99999997,-5.00000003 2.76000003,0 5.00000003,2.24000003 5.00000003,5.00000003 0,2.76 -2.24,5 -5.00000003,5 -2.75999997,0 -4.99999997,-2.24 -4.99999997,-5 z"
       copytype="single_stretched"
       prop_scale="0.60059323"
       scale_y_rel="false"
       spacing="0"
       normal_offset="0"
       tang_offset="0"
       prop_units="false"
       vertical_pattern="false"
       fuse_tolerance="0" />
    <inkscape:path-effect
       effect="spiro"
       id="path-effect1023"
       is_visible="true" />
    <inkscape:path-effect
       effect="spiro"
       id="path-effect1019"
       is_visible="true" />
    <inkscape:path-effect
       fuse_tolerance="0"
       vertical_pattern="false"
       prop_units="false"
       tang_offset="0"
       normal_offset="0"
       spacing="0"
       scale_y_rel="false"
       prop_scale="0.65095273"
       copytype="single_stretched"
       pattern="m -163.03435,19.967093 c 0,-2.76 2.24,-5 5,-5 2.76,0 5,2.24 5,5 0,2.76 -2.24,5 -5,5 -2.76,0 -5,-2.24 -5,-5 z"
       is_visible="true"
       id="path-effect1037"
       effect="skeletal" />
    <inkscape:path-effect
       is_visible="true"
       id="path-effect1035"
       effect="spiro" />
    <inkscape:path-effect
       effect="skeletal"
       id="path-effect1031"
       is_visible="true"
       pattern="m -163.03435,19.967093 c 0,-2.76 2.24,-5 5,-5 2.76,0 5,2.24 5,5 0,2.76 -2.24,5 -5,5 -2.76,0 -5,-2.24 -5,-5 z"
       copytype="single_stretched"
       prop_scale="0.65095273"
       scale_y_rel="false"
       spacing="0"
       normal_offset="0"
       tang_offset="0"
       prop_units="false"
       vertical_pattern="false"
       fuse_tolerance="0" />
    <inkscape:path-effect
       effect="spiro"
       id="path-effect1029"
       is_visible="true" />
    <inkscape:path-effect
       effect="skeletal"
       id="path-effect1018"
       is_visible="true"
       pattern="m 176.93243,33.33057 c 0,-2.76 2.24,-5 5,-5 2.76,0 5,2.24 5,5 0,2.76 -2.24,5 -5,5 -2.76,0 -5,-2.24 -5,-5 z"
       copytype="single_stretched"
       prop_scale="0.9712352"
       scale_y_rel="false"
       spacing="0"
       normal_offset="0"
       tang_offset="0"
       prop_units="false"
       vertical_pattern="false"
       fuse_tolerance="0" />
    <inkscape:path-effect
       effect="spiro"
       id="path-effect1016"
       is_visible="true" />
    <inkscape:path-effect
       fuse_tolerance="0"
       vertical_pattern="false"
       prop_units="false"
       tang_offset="0"
       normal_offset="0"
       spacing="0"
       scale_y_rel="false"
       prop_scale="0.9712352"
       copytype="single_stretched"
       pattern="M 0,5 C 0,2.24 2.24,0 5,0 7.76,0 10,2.24 10,5 10,7.76 7.76,10 5,10 2.24,10 0,7.76 0,5 Z"
       is_visible="true"
       id="path-effect1012"
       effect="skeletal" />
    <inkscape:path-effect
       is_visible="true"
       id="path-effect1010"
       effect="spiro" />
    <inkscape:path-effect
       effect="skeletal"
       id="path-effect1006"
       is_visible="true"
       pattern="M 0,5 C 0,2.24 2.24,0 5,0 7.76,0 10,2.24 10,5 10,7.76 7.76,10 5,10 2.24,10 0,7.76 0,5 Z"
       copytype="single_stretched"
       prop_scale="0.9712352"
       scale_y_rel="false"
       spacing="0"
       normal_offset="0"
       tang_offset="0"
       prop_units="false"
       vertical_pattern="false"
       fuse_tolerance="0" />
    <inkscape:path-effect
       effect="spiro"
       id="path-effect1004"
       is_visible="true" />
    <inkscape:path-effect
       fuse_tolerance="0"
       vertical_pattern="false"
       prop_units="false"
       tang_offset="0"
       normal_offset="0"
       spacing="0"
       scale_y_rel="false"
       prop_scale="0.53948156"
       copytype="single_stretched"
       pattern="m -64.275497,-22.03626 c 0,-2.76 2.24,-5 5,-5 2.76,0 5,2.24 5,5 0,2.76 -2.24,5 -5,5 -2.76,0 -5,-2.24 -5,-5 z"
       is_visible="true"
       id="path-effect979"
       effect="skeletal" />
    <inkscape:path-effect
       is_visible="true"
       id="path-effect977"
       effect="spiro" />
    <inkscape:path-effect
       effect="skeletal"
       id="path-effect973"
       is_visible="true"
       pattern="m -87.332055,-22.03626 c 0,-2.76 2.24,-5 5,-5 2.76,0 5,2.24 5,5 0,2.76 -2.24,5 -5,5 -2.76,0 -5,-2.24 -5,-5 z"
       copytype="single_stretched"
       prop_scale="0.53948156"
       scale_y_rel="false"
       spacing="0"
       normal_offset="0"
       tang_offset="0"
       prop_units="false"
       vertical_pattern="false"
       fuse_tolerance="0" />
    <inkscape:path-effect
       effect="spiro"
       id="path-effect971"
       is_visible="true" />
    <inkscape:path-effect
       fuse_tolerance="0"
       vertical_pattern="false"
       prop_units="false"
       tang_offset="0"
       normal_offset="0"
       spacing="0"
       scale_y_rel="false"
       prop_scale="0.53948156"
       copytype="single_stretched"
       pattern="m -79.646537,-22.03626 c 0,-2.76 2.24,-5 5,-5 2.76,0 5,2.24 5,5 0,2.76 -2.24,5 -5,5 -2.76,0 -5,-2.24 -5,-5 z"
       is_visible="true"
       id="path-effect967"
       effect="skeletal" />
    <inkscape:path-effect
       is_visible="true"
       id="path-effect965"
       effect="spiro" />
    <inkscape:path-effect
       effect="skeletal"
       id="path-effect961"
       is_visible="true"
       pattern="m -71.961017,-22.03626 c 0,-2.76 2.24,-5 5,-5 2.76,0 5,2.24 5,5 0,2.76 -2.24,5 -5,5 -2.76,0 -5,-2.24 -5,-5 z"
       copytype="single_stretched"
       prop_scale="0.53948156"
       scale_y_rel="false"
       spacing="0"
       normal_offset="0"
       tang_offset="0"
       prop_units="false"
       vertical_pattern="false"
       fuse_tolerance="0" />
    <inkscape:path-effect
       effect="spiro"
       id="path-effect959"
       is_visible="true" />
    <inkscape:path-effect
       effect="skeletal"
       id="path-effect955"
       is_visible="true"
       pattern="m -6.8035714,4.6220238 c 0,-2.76 2.24,-4.99999999 5,-4.99999999 2.76000001,0 5,2.23999999 5,4.99999999 0,2.76 -2.23999999,5 -5,5 -2.76,0 -5,-2.24 -5,-5 z"
       copytype="single_stretched"
       prop_scale="-0.93703123"
       scale_y_rel="false"
       spacing="0"
       normal_offset="0"
       tang_offset="0"
       prop_units="false"
       vertical_pattern="false"
       fuse_tolerance="0" />
    <inkscape:path-effect
       effect="spiro"
       id="path-effect953"
       is_visible="true" />
    <inkscape:path-effect
       effect="powerstroke"
       id="path-effect949"
       is_visible="true"
       offset_points="1.9860884,6.0509687"
       sort_points="true"
       interpolator_type="CubicBezierJohan"
       interpolator_beta="0.2"
       start_linecap_type="zerowidth"
       linejoin_type="extrp_arc"
       miter_limit="4"
       end_linecap_type="zerowidth" />
    <inkscape:path-effect
       effect="bspline"
       id="path-effect947"
       is_visible="true"
       weight="33.333333"
       steps="2"
       helper_size="0"
       apply_no_weight="true"
       apply_with_weight="true"
       only_selected="false" />
    <inkscape:path-effect
       effect="powerstroke"
       id="path-effect943"
       is_visible="true"
       offset_points="0.57664225,-7.0492559"
       sort_points="true"
       interpolator_type="CubicBezierJohan"
       interpolator_beta="0.2"
       start_linecap_type="zerowidth"
       linejoin_type="extrp_arc"
       miter_limit="4"
       end_linecap_type="zerowidth" />
    <inkscape:path-effect
       effect="powerstroke"
       id="path-effect935"
       is_visible="true"
       offset_points="0.94294574,5.1240847"
       sort_points="true"
       interpolator_type="CubicBezierJohan"
       interpolator_beta="0.2"
       start_linecap_type="zerowidth"
       linejoin_type="extrp_arc"
       miter_limit="4"
       end_linecap_type="zerowidth" />
  </defs>
  <sodipodi:namedview
     id="base"
     pagecolor="#ffffff"
     bordercolor="#666666"
     borderopacity="1.0"
     inkscape:pageopacity="0.0"
     inkscape:pageshadow="2"
     inkscape:zoom="1.4"
     inkscape:cx="109.48015"
     inkscape:cy="142.98344"
     inkscape:document-units="mm"
     inkscape:current-layer="g1239"
     showgrid="false"
     fit-margin-top="0"
     fit-margin-left="0"
     fit-margin-right="0"
     fit-margin-bottom="0"
     inkscape:window-width="1546"
     inkscape:window-height="845"
     inkscape:window-x="54"
     inkscape:window-y="27"
     inkscape:window-maximized="1"
     inkscape:snap-global="true"
     inkscape:snap-bbox="true"
     inkscape:snap-bbox-midpoints="false"
     showguides="true"
     inkscape:guide-bbox="true" />
  <metadata
     id="metadata5">
    <rdf:RDF>
      <cc:Work
         rdf:about="">
        <dc:format>image/svg+xml</dc:format>
        <dc:type
           rdf:resource="http://purl.org/dc/dcmitype/StillImage" />
        <dc:title />
      </cc:Work>
    </rdf:RDF>
  </metadata>
  <g
     inkscape:label="Capa 1"
     inkscape:groupmode="layer"
     id="layer1"
     transform="translate(197.30357,-62.122017)">
    <rect
       y="62.122017"
       x="-197.30357"
       height="100"
       width="100"
       id="rect1124"
       style="opacity:1;fill:none;fill-opacity:1;stroke:none;stroke-width:2;stroke-linecap:round;stroke-linejoin:round;stroke-miterlimit:4;stroke-dasharray:none;stroke-opacity:1"
       ry="24.297619" />
    <g
       id="g1239"
       transform="translate(0.69632414)">
      <g
         transform="translate(5.8245302,0.00125967)"
         id="g1122">
        <g
           id="g966"
           transform="matrix(1.8383273,0,0,1.8383273,75.891699,-94.52211)"
           style="stroke-width:0.54397279">
          <path
             transform="matrix(0.26458333,0,0,0.26458333,-197.30357,62.122017)"
             id="path890"
             d="m 235.25391,249.53711 c 7.16168,-15.95719 12.42418,-35.16976 12.80273,-57.02539 0.0151,-0.81513 0.0195,-1.63294 0.0195,-2.45117 -0.0343,-22.80446 -5.39541,-42.89908 -12.82226,-59.47071 -0.14312,0.095 -0.29903,0.17153 -0.44141,0.26758 -1.89787,1.2803 -3.73101,2.64918 -5.49219,4.10156 -1.76117,1.45239 -3.45177,2.98889 -5.06445,4.60157 -1.40636,1.40636 -2.72669,2.89615 -4.01172,4.41601 4.15858,13.72229 7.02651,29.21016 7.02539,46.09961 0,0.70844 -0.003,1.41587 -0.0156,2.1211 -0.20101,16.0869 -2.97454,30.87993 -6.95899,44.01171 1.27047,1.49925 2.57222,2.97086 3.96094,4.35938 1.61268,1.61245 3.30328,3.14745 5.06445,4.59961 1.76118,1.45216 3.59432,2.82148 5.49219,4.10156 0.1424,0.096 0.29827,0.17254 0.44141,0.26758 z"
             style="fill:#0080d4;fill-opacity:1;stroke:none;stroke-width:0.54397273px;stroke-linecap:butt;stroke-linejoin:miter;stroke-opacity:1"
             inkscape:connector-curvature="0" />
          <path
             transform="matrix(0.26458333,0,0,0.26458333,-197.30357,62.122017)"
             id="path888"
             d="m 268.62891,119.00586 c -0.39027,0.033 -0.79323,0.0194 -1.18164,0.0586 -2.40439,0.24288 -4.77293,0.60417 -7.09961,1.07813 -2.32669,0.47395 -4.61048,1.06067 -6.84766,1.7539 -1.44686,0.44835 -2.83878,1.01283 -4.24414,1.54883 7.43971,18.56706 13.35714,41.1543 13.35547,66.63281 0,0.77802 -0.012,1.55367 -0.0195,2.32813 -0.30693,24.56346 -6.09938,46.30655 -13.31641,64.28125 1.39915,0.53306 2.78434,1.09481 4.22461,1.54102 2.23718,0.69309 4.52097,1.28005 6.84766,1.7539 2.32668,0.47386 4.69522,0.8353 7.09961,1.07813 0.40705,0.0411 0.8292,0.0282 1.23828,0.0625 9.23348,-18.55811 16.29168,-41.68655 16.7539,-68.3711 0.0113,-0.89522 0.0195,-1.79278 0.0195,-2.6914 -0.0418,-27.76661 -7.27569,-51.83909 -16.83007,-71.05469 z"
             style="fill:#0080d4;fill-opacity:1;stroke:none;stroke-width:0.54397273px;stroke-linecap:butt;stroke-linejoin:miter;stroke-opacity:1"
             inkscape:connector-curvature="0" />
          <path
             transform="matrix(0.26458333,0,0,0.26458333,-197.30357,62.122017)"
             id="path886"
             d="m 241.37891,106.28516 c 2.69431,5.27738 5.36979,10.9031 7.87695,17.16015 1.40536,-0.536 2.79728,-1.10048 4.24414,-1.54883 2.23718,-0.69323 4.52097,-1.27995 6.84766,-1.7539 2.32668,-0.47396 4.69522,-0.83525 7.09961,-1.07813 0.38841,-0.0392 0.79137,-0.0256 1.18164,-0.0586 -3.20527,-6.44636 -6.63112,-12.37543 -10.19141,-17.64844 -0.60555,0.11143 -1.23267,0.15774 -1.83398,0.28125 -2.93413,0.60267 -5.81669,1.34941 -8.64063,2.23047 -2.24358,0.69999 -4.41861,1.54897 -6.58398,2.41602 z"
             style="fill:#0080d4;fill-opacity:1;stroke:none;stroke-width:0.54397273px;stroke-linecap:butt;stroke-linejoin:miter;stroke-opacity:1"
             inkscape:connector-curvature="0" />
          <path
             transform="matrix(0.26458333,0,0,0.26458333,-197.30357,62.122017)"
             id="path882"
             d="m 212.99023,124.45312 c 2.6273,6.03568 5.11666,12.47103 7.25391,19.52344 1.28503,-1.51986 2.60536,-3.00965 4.01172,-4.41601 1.61268,-1.61268 3.30328,-3.14918 5.06445,-4.60157 1.76118,-1.45238 3.59432,-2.82126 5.49219,-4.10156 0.14238,-0.096 0.29829,-0.17253 0.44141,-0.26758 -2.71238,-6.05215 -5.69728,-11.56711 -8.81641,-16.61718 -0.68833,0.43898 -1.4182,0.81649 -2.09375,1.27343 -2.40164,1.62449 -4.72088,3.36141 -6.95117,5.20313 -1.53096,1.26422 -2.9582,2.6434 -4.40235,4.0039 z"
             style="fill:#0080d4;fill-opacity:1;stroke:none;stroke-width:0.54397273px;stroke-linecap:butt;stroke-linejoin:miter;stroke-opacity:1"
             inkscape:connector-curvature="0" />
          <path
             transform="matrix(0.26458333,0,0,0.26458333,-197.30357,62.122017)"
             id="path878"
             d="m 226.45117,266.16211 c 3.11929,-5.04275 6.08848,-10.57727 8.80274,-16.625 -0.14314,-0.095 -0.29901,-0.17153 -0.44141,-0.26758 -1.89787,-1.28008 -3.73101,-2.6494 -5.49219,-4.10156 -1.76117,-1.45216 -3.45177,-2.98716 -5.06445,-4.59961 -1.38872,-1.38852 -2.69047,-2.86013 -3.96094,-4.35938 -2.13554,7.03822 -4.63446,13.48656 -7.25976,19.50782 1.43019,1.34539 2.84222,2.70988 4.35742,3.96093 2.23029,1.84149 4.54953,3.57886 6.95117,5.20313 0.67989,0.45982 1.41458,0.83962 2.10742,1.28125 z"
             style="fill:#0080d4;fill-opacity:1;stroke:none;stroke-width:0.54397273px;stroke-linecap:butt;stroke-linejoin:miter;stroke-opacity:1"
             inkscape:connector-curvature="0" />
          <path
             transform="matrix(0.26458333,0,0,0.26458333,-197.30357,62.122017)"
             id="path874"
             d="m 258.49023,278.77539 c 3.55796,-5.26745 6.99025,-11.21057 10.19532,-17.65234 -0.40908,-0.0343 -0.83123,-0.0214 -1.23828,-0.0625 -2.40439,-0.24283 -4.77293,-0.60427 -7.09961,-1.07813 -2.32669,-0.47385 -4.61048,-1.06081 -6.84766,-1.7539 -1.44027,-0.44621 -2.82546,-1.00796 -4.22461,-1.54102 -2.51607,6.26651 -5.19696,11.87299 -7.89844,17.1543 2.16592,0.86718 4.34178,1.71595 6.58594,2.41601 2.82394,0.88092 5.7065,1.62595 8.64063,2.22852 0.61858,0.12703 1.26364,0.17481 1.88671,0.28906 z"
             style="fill:#0080d4;fill-opacity:1;stroke:none;stroke-width:0.54397273px;stroke-linecap:butt;stroke-linejoin:miter;stroke-opacity:1"
             inkscape:connector-curvature="0" />
          <path
             transform="matrix(0.26458333,0,0,0.26458333,-197.30357,62.122017)"
             id="path868"
             d="m 327.875,237.69727 c -0.86385,0.96319 -1.69478,1.9565 -2.60938,2.87109 -1.61244,1.61245 -3.3035,3.14745 -5.06445,4.59961 -1.76094,1.45216 -3.59258,2.82148 -5.49023,4.10156 -1.89766,1.28008 -3.86024,2.4702 -5.88282,3.56641 -2.02257,1.09621 -4.10453,2.09945 -6.24023,3 -2.1357,0.90055 -4.32546,1.69948 -6.5625,2.39258 -0.64508,0.19986 -1.32173,0.32387 -1.97461,0.50586 -2.43504,7.34206 -5.07619,14.31282 -7.89062,20.7871 2.27207,-0.2887 4.54491,-0.57988 6.76172,-1.03515 2.93402,-0.60257 5.81682,-1.3476 8.64062,-2.22852 2.8238,-0.88092 5.58686,-1.89703 8.28516,-3.04101 2.4459,-1.03698 4.81959,-2.21196 7.15039,-3.45313 4.31144,-9.81761 8.01375,-20.53288 10.87695,-32.0664 z"
             style="fill:#0080d4;fill-opacity:1;stroke:none;stroke-width:0.54397273px;stroke-linecap:butt;stroke-linejoin:miter;stroke-opacity:1"
             inkscape:connector-curvature="0" />
          <path
             transform="matrix(0.26458333,0,0,0.26458333,-197.30357,62.122017)"
             id="path866"
             d="m 327.83594,142.39062 c -0.85182,-0.94836 -1.66926,-1.92889 -2.57032,-2.83007 -1.61244,-1.61268 -3.3035,-3.14918 -5.06445,-4.60157 -1.76094,-1.45238 -3.59258,-2.82126 -5.49023,-4.10156 -1.89766,-1.28029 -3.86024,-2.47195 -5.88282,-3.56836 -2.02257,-1.0964 -4.10453,-2.09732 -6.24023,-2.99804 -2.1357,-0.90073 -4.32546,-1.7013 -6.5625,-2.39454 -0.66233,-0.20524 -1.3568,-0.33314 -2.02734,-0.51953 6.66656,20.11898 11.46847,43.22653 11.46679,68.70508 0,0.96696 -0.004,1.93196 -0.0195,2.89453 -0.30427,24.3522 -4.98645,46.43632 -11.39453,65.75782 0.65288,-0.18199 1.32953,-0.306 1.97461,-0.50586 2.23704,-0.6931 4.4268,-1.49203 6.5625,-2.39258 2.1357,-0.90055 4.21766,-1.90379 6.24023,-3 2.02258,-1.09621 3.98516,-2.28633 5.88282,-3.56641 1.89765,-1.28008 3.72929,-2.6494 5.49023,-4.10156 1.76095,-1.45216 3.45201,-2.98716 5.06445,-4.59961 0.9146,-0.91459 1.74553,-1.9079 2.60938,-2.87109 3.40575,-13.71901 5.69035,-28.44632 5.96484,-44.29297 0.0151,-1.11258 0.0272,-2.22683 0.0234,-3.34375 -0.0257,-17.09131 -2.36902,-32.96939 -6.02734,-47.66993 z"
             style="fill:#0080d4;fill-opacity:1;stroke:none;stroke-width:0.54397273px;stroke-linecap:butt;stroke-linejoin:miter;stroke-opacity:1"
             inkscape:connector-curvature="0" />
          <path
             transform="matrix(0.26458333,0,0,0.26458333,-197.30357,62.122017)"
             id="path864"
             d="m 316.97266,110.34961 c -2.32279,-1.23612 -4.68798,-2.40608 -7.125,-3.43945 -2.6983,-1.14416 -5.46136,-2.15996 -8.28516,-3.04102 -2.8238,-0.88106 -5.7066,-1.6278 -8.64062,-2.23047 -2.23731,-0.45955 -4.53066,-0.75508 -6.82422,-1.04492 2.81488,6.48439 5.46449,13.43194 7.90039,20.7832 0.67054,0.18639 1.36501,0.31429 2.02734,0.51953 2.23704,0.69324 4.4268,1.49381 6.5625,2.39454 2.1357,0.90072 4.21766,1.90164 6.24023,2.99804 2.02258,1.09641 3.98516,2.28807 5.88282,3.56836 1.89765,1.2803 3.72929,2.64918 5.49023,4.10156 1.76095,1.45239 3.45201,2.98889 5.06445,4.60157 0.90106,0.90118 1.7185,1.88171 2.57032,2.83007 -2.86461,-11.5111 -6.55726,-22.22754 -10.86328,-32.04101 z"
             style="fill:#0080d4;fill-opacity:1;stroke:none;stroke-width:0.54397273px;stroke-linecap:butt;stroke-linejoin:miter;stroke-opacity:1"
             inkscape:connector-curvature="0" />
        </g>
      </g>
    </g>
  </g>
</svg>
