<?xml version="1.0" encoding="UTF-8" standalone="no"?>
<svg
   xmlns:dc="http://purl.org/dc/elements/1.1/"
   xmlns:cc="http://creativecommons.org/ns#"
   xmlns:rdf="http://www.w3.org/1999/02/22-rdf-syntax-ns#"
   xmlns:svg="http://www.w3.org/2000/svg"
   xmlns="http://www.w3.org/2000/svg"
   xmlns:sodipodi="http://sodipodi.sourceforge.net/DTD/sodipodi-0.dtd"
   xmlns:inkscape="http://www.inkscape.org/namespaces/inkscape"
   width="39.239174mm"
   height="39.239178mm"
   viewBox="0 0 39.239174 39.239178"
   version="1.1"
   id="svg909"
   sodipodi:docname="music.svg"
   inkscape:version="0.92.5 (2060ec1f9f, 2020-04-08)">
  <sodipodi:namedview
     pagecolor="#ffffff"
     bordercolor="#666666"
     borderopacity="1"
     objecttolerance="10"
     gridtolerance="10"
     guidetolerance="10"
     inkscape:pageopacity="0"
     inkscape:pageshadow="2"
     inkscape:window-width="1440"
     inkscape:window-height="786"
     id="namedview8"
     showgrid="false"
     fit-margin-top="0"
     fit-margin-left="0"
     fit-margin-right="0"
     fit-margin-bottom="0"
     inkscape:zoom="2.3600001"
     inkscape:cx="-39.830474"
     inkscape:cy="57.842201"
     inkscape:window-x="0"
     inkscape:window-y="27"
     inkscape:window-maximized="1"
     inkscape:current-layer="svg909" />
  <defs
     id="defs903" />
  <metadata
     id="metadata906">
    <rdf:RDF>
      <cc:Work
         rdf:about="">
        <dc:format>image/svg+xml</dc:format>
        <dc:type
           rdf:resource="http://purl.org/dc/dcmitype/StillImage" />
        <dc:title />
      </cc:Work>
    </rdf:RDF>
  </metadata>
  <g
     id="g21"
     transform="translate(-1.457449,-0.1681433)">
    <g
       style="stroke-width:0.71665704"
       transform="matrix(1.3953676,0,0,1.3953676,-24.093136,-154.94275)"
       id="layer1">
      <g
         style="stroke-width:0.54905522"
         transform="matrix(0.77468736,0.77671963,-1.1005468,1.0957625,156.46778,-29.731393)"
         id="g7573" />
      <path
         inkscape:connector-curvature="0"
         id="path7581"
         d="m 37.286438,118.48844 c -0.412231,0 -0.753183,0.29593 -0.753183,0.77892 v 12.40742 c -0.959103,-0.081 -2.193149,0.25747 -3.33243,0.91404 -2.002927,1.15639 -3.136145,2.94315 -2.53121,3.99073 0.604943,1.04761 2.718807,0.95951 4.721642,-0.19684 1.474314,-0.85182 2.5317,-2.08559 2.674549,-3.12076 0.009,-0.0453 0.01355,-0.0941 0.01355,-0.14389 v -0.0181 c 0.0017,-0.0453 0.0017,-0.0868 0,-0.12987 v -11.18334 c 1.610964,0.47725 4.107144,0.82869 4.107144,4.15521 -0.0046,0.10225 0.07826,0.18688 0.180551,0.18688 0.102252,0 0.184156,-0.0851 0.180538,-0.18688 1.363496,-4.03046 -3.742302,-4.67733 -4.502084,-6.91112 -0.101361,-0.33213 -0.347059,-0.5468 -0.759018,-0.5468 z"
         style="opacity:1;fill-opacity:1;fill-rule:evenodd;stroke:none;stroke-width:0.20194052;stroke-linecap:round;stroke-miterlimit:4;stroke-dasharray:none;stroke-opacity:1;paint-order:stroke fill markers" />
    </g>
    <g
       id="g13"
       transform="matrix(1.3953676,0,0,1.3953676,-33.54534,-162.40999)"
       style="stroke-width:0.71665704">
      <g
         id="g9"
         transform="matrix(0.77468736,0.77671963,-1.1005468,1.0957625,156.46778,-29.731393)"
         style="stroke-width:0.54905522" />
      <path
         style="opacity:1;fill-opacity:1;fill-rule:evenodd;stroke:none;stroke-width:0.20194052;stroke-linecap:round;stroke-miterlimit:4;stroke-dasharray:none;stroke-opacity:1;paint-order:stroke fill markers"
         d="m 35.518836,118.48844 c -0.412231,0 -0.753183,0.29593 -0.753183,0.77892 v 12.40742 c -0.959103,-0.081 -2.193149,0.25747 -3.33243,0.91404 -2.002927,1.15639 -3.136145,2.94315 -2.53121,3.99073 0.604943,1.04761 2.718807,0.95951 4.721642,-0.19684 1.474314,-0.85182 2.5317,-2.08559 2.674549,-3.12076 0.009,-0.0453 0.01355,-0.0941 0.01355,-0.14389 v -0.0181 c 0.0017,-0.0453 0.0017,-0.0868 0,-0.12987 v -11.18334 c 1.610964,0.47725 4.107144,0.82869 4.107144,4.15521 -0.0046,0.10225 0.07826,0.18688 0.180551,0.18688 0.102252,0 0.184156,-0.0851 0.180538,-0.18688 1.363496,-4.03046 -3.742302,-4.67733 -4.502084,-6.91112 -0.101361,-0.33213 -0.347059,-0.5468 -0.759018,-0.5468 z"
         id="path11"
         inkscape:connector-curvature="0" />
    </g>
  </g>
</svg>
