<?xml version="1.0" encoding="UTF-8" standalone="no"?>
<svg
   xmlns:dc="http://purl.org/dc/elements/1.1/"
   xmlns:cc="http://creativecommons.org/ns#"
   xmlns:rdf="http://www.w3.org/1999/02/22-rdf-syntax-ns#"
   xmlns:svg="http://www.w3.org/2000/svg"
   xmlns="http://www.w3.org/2000/svg"
   xmlns:sodipodi="http://sodipodi.sourceforge.net/DTD/sodipodi-0.dtd"
   xmlns:inkscape="http://www.inkscape.org/namespaces/inkscape"
   id="svg8"
   version="1.1"
   viewBox="0 0 100 100"
   sodipodi:docname="search.svg"
   inkscape:version="0.92.5 (2060ec1f9f, 2020-04-08)">
  <sodipodi:namedview
     pagecolor="#ffffff"
     bordercolor="#666666"
     borderopacity="1"
     objecttolerance="10"
     gridtolerance="10"
     guidetolerance="10"
     inkscape:pageopacity="0"
     inkscape:pageshadow="2"
     inkscape:window-width="1440"
     inkscape:window-height="786"
     id="namedview7"
     showgrid="false"
     inkscape:zoom="3.337544"
     inkscape:cx="42.816605"
     inkscape:cy="42.115404"
     inkscape:window-x="0"
     inkscape:window-y="27"
     inkscape:window-maximized="1"
     inkscape:current-layer="svg8" />
  <defs
     id="defs2" />
  <metadata
     id="metadata5">
    <rdf:RDF>
      <cc:Work
         rdf:about="">
        <dc:format>image/svg+xml</dc:format>
        <dc:type
           rdf:resource="http://purl.org/dc/dcmitype/StillImage" />
        <dc:title />
      </cc:Work>
    </rdf:RDF>
  </metadata>
  <g
     transform="rotate(-15,-290.2417,307.73959)"
     id="layer1">
    <path
       id="path10"
       d="m 75.35605,122.80905 c -10.97535,10.97532 -10.97535,28.76986 0,39.74519 9.44545,9.42495 24.21602,10.90895 35.34762,3.55138 l 1.8843,0.43901 2.39259,0.0137 2.49199,2.49199 -0.44368,1.93519 10.2396,11.6849 c 1.81107,1.97783 4.94933,1.89628 6.84562,0 l 1.10334,-1.10335 c 1.89628,-1.89628 2.0117,-5.07223 0,-6.84561 l -11.65246,-10.27203 -1.96762,0.47611 -2.49199,-2.49199 -0.27567,-2.7194 -0.15674,-1.53717 c 7.36353,-11.1406 5.87054,-25.92451 -3.57171,-35.36794 -10.97532,-10.97535 -28.76986,-10.97535 -39.74519,0 z m 7.94896,7.94895 c 6.58521,-6.58532 17.26207,-6.58532 23.84728,0 6.58512,6.58525 6.58503,17.26194 -2.1e-4,23.84708 -6.58517,6.58504 -17.2617,6.58504 -23.84687,0 -6.58524,-6.58514 -6.58533,-17.26183 -2e-4,-23.84708 z"
       style="opacity:1;fill-opacity:1;stroke:none;stroke-width:4.10897923;stroke-linecap:round;stroke-linejoin:miter;stroke-miterlimit:4;stroke-dasharray:none;stroke-dashoffset:0;stroke-opacity:1"
       inkscape:connector-curvature="0"
       sodipodi:nodetypes="ccccccccccsccccccccscccs" />
  </g>
</svg>
