<?xml version="1.0" encoding="UTF-8" standalone="no"?>
<!-- Created with Inkscape (http://www.inkscape.org/) -->

<svg
   xmlns:dc="http://purl.org/dc/elements/1.1/"
   xmlns:cc="http://creativecommons.org/ns#"
   xmlns:rdf="http://www.w3.org/1999/02/22-rdf-syntax-ns#"
   xmlns:svg="http://www.w3.org/2000/svg"
   xmlns="http://www.w3.org/2000/svg"
   xmlns:sodipodi="http://sodipodi.sourceforge.net/DTD/sodipodi-0.dtd"
   xmlns:inkscape="http://www.inkscape.org/namespaces/inkscape"
   width="120.95238mm"
   height="120.95238mm"
   viewBox="0 0 120.95238 120.95238"
   version="1.1"
   id="svg8"
   inkscape:version="0.92.5 (2060ec1f9f, 2020-04-08)"
   sodipodi:docname="Vistas.svg">
  <defs
     id="defs2" />
  <sodipodi:namedview
     id="base"
     pagecolor="#ffffff"
     bordercolor="#666666"
     borderopacity="1.0"
     inkscape:pageopacity="0.0"
     inkscape:pageshadow="2"
     inkscape:zoom="0.35"
     inkscape:cx="-8.8798845"
     inkscape:cy="111.1111"
     inkscape:document-units="mm"
     inkscape:current-layer="layer1"
     showgrid="false"
     fit-margin-top="0"
     fit-margin-left="0"
     fit-margin-right="0"
     fit-margin-bottom="0"
     inkscape:window-width="1440"
     inkscape:window-height="786"
     inkscape:window-x="0"
     inkscape:window-y="27"
     inkscape:window-maximized="1" />
  <metadata
     id="metadata5">
    <rdf:RDF>
      <cc:Work
         rdf:about="">
        <dc:format>image/svg+xml</dc:format>
        <dc:type
           rdf:resource="http://purl.org/dc/dcmitype/StillImage" />
        <dc:title></dc:title>
      </cc:Work>
    </rdf:RDF>
  </metadata>
  <g
     inkscape:label="Capa 1"
     inkscape:groupmode="layer"
     id="layer1"
     transform="translate(-44.523811,-88.023811)">
    <circle
       r="60.476189"
       cy="283.05951"
       cx="-137.66072"
       id="circle871"
       style="opacity:1;fill:#782121;fill-opacity:1;stroke:none;stroke-width:4.10897923;stroke-linecap:round;stroke-linejoin:miter;stroke-miterlimit:4;stroke-dasharray:none;stroke-dashoffset:0;stroke-opacity:1" />
    <circle
       style="opacity:1;fill:#782121;fill-opacity:1;stroke:none;stroke-width:4.10897923;stroke-linecap:round;stroke-linejoin:miter;stroke-miterlimit:4;stroke-dasharray:none;stroke-dashoffset:0;stroke-opacity:1"
       id="circle861"
       cx="105"
       cy="148.5"
       r="60.476189" />
    <circle
       r="60.476189"
       cy="294.39883"
       cx="93.660713"
       id="circle843"
       style="opacity:1;fill:#782121;fill-opacity:1;stroke:none;stroke-width:4.10897923;stroke-linecap:round;stroke-linejoin:miter;stroke-miterlimit:4;stroke-dasharray:none;stroke-dashoffset:0;stroke-opacity:1" />
    <circle
       style="opacity:1;fill:#782121;fill-opacity:1;stroke:none;stroke-width:4.10897923;stroke-linecap:round;stroke-linejoin:miter;stroke-miterlimit:4;stroke-dasharray:none;stroke-dashoffset:0;stroke-opacity:1"
       id="path820"
       cx="-162.60715"
       cy="114.48215"
       r="60.476189" />
    <path
       inkscape:connector-curvature="0"
       id="path845"
       d="m -174.96045,93.288966 c -3.13556,0.04773 -2.28941,6.496458 -2.28941,22.499774 0,28.45033 -2.67443,26.70334 19.10354,12.47816 21.77797,-14.22516 21.77797,-10.73116 0,-24.95634 -9.52787,-6.223505 -14.37535,-10.058699 -16.81413,-10.021594 z"
       style="opacity:1;fill:#ffffff;fill-opacity:1;stroke:none;stroke-width:4.10897923;stroke-linecap:round;stroke-linejoin:miter;stroke-miterlimit:4;stroke-dasharray:none;stroke-dashoffset:0;stroke-opacity:1" />
    <path
       style="opacity:1;fill:#ffffff;fill-opacity:1;stroke:none;stroke-width:4.10897923;stroke-linecap:round;stroke-linejoin:miter;stroke-miterlimit:4;stroke-dasharray:none;stroke-dashoffset:0;stroke-opacity:1"
       d="m 84.872397,126.00015 c -3.135559,0.0477 -2.289265,6.49661 -2.289265,22.49992 0,28.45033 -2.674739,26.70349 19.103218,12.47831 21.77798,-14.22516 21.77798,-10.73144 0,-24.95662 -9.527858,-6.2235 -14.375172,-10.05872 -16.813953,-10.02161 z m 43.212353,0 c -1.97129,0 -3.55792,1.58715 -3.55792,3.55844 v 37.88296 c 0,1.97129 1.58663,3.55844 3.55792,3.55844 h 0.41341 c 1.9713,0 3.55844,-1.58715 3.55844,-3.55844 v -37.88296 c 0,-1.97129 -1.58714,-3.55844 -3.55844,-3.55844 z"
       id="rect847"
       inkscape:connector-curvature="0" />
    <path
       style="opacity:1;fill:#ffffff;fill-opacity:1;stroke:none;stroke-width:4.10897923;stroke-linecap:round;stroke-linejoin:miter;stroke-miterlimit:4;stroke-dasharray:none;stroke-dashoffset:0;stroke-opacity:1"
       d="m -147.08986,260.55959 c -1.97129,0 -3.55844,1.58715 -3.55844,3.55844 v 37.88296 c 0,1.97129 1.58715,3.55844 3.55844,3.55844 h 0.4129 c 1.97129,0 3.55844,-1.58715 3.55844,-3.55844 v -37.88296 c 0,-1.97129 -1.58715,-3.55844 -3.55844,-3.55844 z m 18.44487,0 c -1.97129,0 -3.55792,1.58715 -3.55792,3.55844 v 37.88296 c 0,1.97129 1.58663,3.55844 3.55792,3.55844 h 0.41341 c 1.9713,0 3.55844,-1.58715 3.55844,-3.55844 v -37.88296 c 0,-1.97129 -1.58714,-3.55844 -3.55844,-3.55844 z"
       id="rect867"
       inkscape:connector-curvature="0" />
    <path
       id="path875"
       d="m 116.05617,271.89899 c 3.13556,0.0477 2.28927,6.49661 2.28927,22.49992 0,28.45032 2.67474,26.70348 -19.103229,12.4783 -21.777968,-14.22516 -21.777968,-10.73143 0,-24.95661 9.527869,-6.2235 14.375179,-10.05872 16.813959,-10.02161 z m -43.212347,0 c 1.97129,0 3.55792,1.58714 3.55792,3.55844 v 37.88295 c 0,1.9713 -1.58663,3.55844 -3.55792,3.55844 h -0.41341 c -1.97129,0 -3.55844,-1.58714 -3.55844,-3.55844 v -37.88295 c 0,-1.9713 1.58715,-3.55844 3.55844,-3.55844 z"
       style="opacity:1;fill:#ffffff;fill-opacity:1;stroke:none;stroke-width:4.10897923;stroke-linecap:round;stroke-linejoin:miter;stroke-miterlimit:4;stroke-dasharray:none;stroke-dashoffset:0;stroke-opacity:1"
       inkscape:connector-curvature="0" />
    <path
       style="opacity:1;fill:#ff6600;fill-opacity:1;stroke:none;stroke-width:4.10897923;stroke-linecap:round;stroke-linejoin:miter;stroke-miterlimit:4;stroke-dasharray:none;stroke-dashoffset:0;stroke-opacity:1"
       d="m -147.08986,260.55959 c -3.13556,0.0477 -2.28941,6.49646 -2.28941,22.49978 0,28.45033 -2.67443,26.70334 19.10354,12.47816 21.77797,-14.22516 21.77797,-10.73116 0,-24.95634 -9.52787,-6.22351 -14.37535,-10.0587 -16.81413,-10.0216 z"
       id="path2281"
       inkscape:connector-curvature="0" />
  </g>
</svg>
